<svg id="Camada_1" data-name="Camada 1" xmlns="http://www.w3.org/2000/svg" viewBox="0 0 83.17 93.83"><defs><style>.cls-1{fill:#00444f;}</style></defs><title>AD&amp;amp;M_icone</title><path class="cls-1" d="M54.41,10.1v8.64c-6.37-4.85-12-6.51-16.11-6.51-4.53,0-8.15,1.15-10.85,3.45a11.62,11.62,0,0,0-4,9.33,13.72,13.72,0,0,0,1.37,6.1,28.5,28.5,0,0,0,2.77,4.5q.81,1,4,4.26L59.14,66.71c4.16-6.29,6.46-10.8,6.93-20h8.28C74,56.38,69.65,65.6,64.91,72.37l14.74,14.4H68.59l-8.74-8.52a36.11,36.11,0,0,1-25.58,9.89c-8.23,0-15.13-2.2-20.74-6.66S5.22,70.75,5.22,62.7A22.63,22.63,0,0,1,9.95,48.18a28.45,28.45,0,0,1,10.48-8.54A21.86,21.86,0,0,1,14.9,25,18.6,18.6,0,0,1,21.24,10.5,23,23,0,0,1,37.15,4.75C44.89,4.75,51.88,7.57,54.41,10.1ZM34.73,80.67a27.23,27.23,0,0,0,19.46-7.83L25.84,45.17a16.36,16.36,0,0,0-8.57,6.29A18.4,18.4,0,0,0,13.74,62.7a16.31,16.31,0,0,0,5.83,13.07C23.44,79,28.51,80.67,34.73,80.67Z"/></svg>