<svg id="Camada_1" data-name="Camada 1" xmlns="http://www.w3.org/2000/svg" xmlns:xlink="http://www.w3.org/1999/xlink" viewBox="0 0 1922.21 1277.31"><defs><style>.cls-1{fill:#fff;}.cls-10,.cls-2{fill:#94c5c4;}.cls-3{font-size:35px;font-family:SourceSansPro-Regular, Source Sans Pro;}.cls-3,.cls-9{fill:#00444f;}.cls-4{letter-spacing:-0.01em;}.cls-5{letter-spacing:-0.01em;}.cls-6{letter-spacing:-0.03em;}.cls-7{letter-spacing:-0.01em;}.cls-8{letter-spacing:-0.01em;}.cls-10{opacity:0.3;}.cls-11{fill:url(#Gradiente_sem_nome_32);}.cls-12,.cls-13{fill:none;stroke-miterlimit:10;}.cls-12{stroke:#fff;stroke-linecap:square;stroke-width:9px;opacity:0.8;}.cls-13{stroke:#94c5c4;stroke-width:2px;}</style><linearGradient id="Gradiente_sem_nome_32" x1="894.31" y1="1233.35" x2="965.38" y2="956.24" gradientUnits="userSpaceOnUse"><stop offset="0" stop-color="#00444f"/><stop offset="0.05" stop-color="#00444f" stop-opacity="0.93"/><stop offset="0.47" stop-color="#00444f" stop-opacity="0.43"/><stop offset="0.8" stop-color="#00444f" stop-opacity="0.12"/><stop offset="1" stop-color="#00444f" stop-opacity="0"/></linearGradient></defs><title>AD&amp;amp;M_site_abertura</title><rect class="cls-1" x="1.1" width="1920" height="5254.41"/><image width="1087" height="661" transform="scale(1.77)" xlink:href="Dandelion BG 3 - cartão.jpg"/><polygon class="cls-2" points="1922.2 794.79 0 1253.31 1.1 2188.41 1921.1 2188.41 1922.2 794.79"/><text class="cls-3" transform="translate(1076.93 542.1)">Consul<tspan class="cls-4" x="100.73" y="0">t</tspan><tspan x="112.21" y="0">oria emp</tspan><tspan class="cls-4" x="242.72" y="0">r</tspan><tspan x="254.52" y="0">esarial </tspan><tspan class="cls-5" x="0" y="42">p</tspan><tspan x="18.93" y="42">a</tspan><tspan class="cls-6" x="36.85" y="42">r</tspan><tspan x="48.12" y="42">a t</tspan><tspan class="cls-6" x="84.94" y="42">r</tspan><tspan x="96.21" y="42">ans</tspan><tspan class="cls-7" x="147.94" y="42">f</tspan><tspan x="157.81" y="42">ormar g</tspan><tspan class="cls-6" x="272.72" y="42">r</tspan><tspan x="283.99" y="42">andes </tspan><tspan x="0" y="84">ideias em </tspan><tspan class="cls-4" x="147.1" y="84">r</tspan><tspan class="cls-8" x="158.9" y="84">e</tspan><tspan x="175.77" y="84">alidade.</tspan></text><path class="cls-9" d="M1019.38,437.38V446c-6.37-4.85-12-6.51-16.11-6.51-4.53,0-8.15,1.15-10.85,3.45a11.62,11.62,0,0,0-4,9.33,13.72,13.72,0,0,0,1.37,6.1,28.5,28.5,0,0,0,2.77,4.5q.81,1,4,4.26L1024.1,494c4.16-6.29,6.46-10.8,6.93-20h8.28c-.39,9.62-4.69,18.84-9.43,25.61l14.74,14.4h-11.07l-8.74-8.52a36.11,36.11,0,0,1-25.58,9.89c-8.23,0-15.13-2.2-20.74-6.66s-8.3-10.72-8.3-18.78a22.63,22.63,0,0,1,4.73-14.52,28.45,28.45,0,0,1,10.48-8.54,21.86,21.86,0,0,1-5.53-14.62,18.6,18.6,0,0,1,6.34-14.52,23,23,0,0,1,15.91-5.75C1009.85,432,1016.85,434.85,1019.38,437.38Zm-19.68,70.56a27.23,27.23,0,0,0,19.46-7.83L990.8,472.45a16.36,16.36,0,0,0-8.57,6.29A18.4,18.4,0,0,0,978.71,490a16.31,16.31,0,0,0,5.83,13.07C988.41,506.31,993.47,507.95,999.69,507.95Z"/><path class="cls-1" d="M771.78,466.2H746.9l49.46-116H819.1l49.46,116H843.34L832,439.49H783.16Zm35.79-86.38-17,40.05h33.79Z"/><path class="cls-1" d="M919.78,466.2H876.57V350.82h43.21q28,0,45.66,16.16t17.63,41.52q0,25.56-17.63,41.72Q948,466.19,919.78,466.2Zm-19.46-94.14v72.86H917.8q19.28,0,30.09-9.62t10.8-26.81q0-17.11-10.8-26.78t-30.09-9.65Z"/><path class="cls-1" d="M1051.13,466h-23.75V350.64H1051l33.47,47.79,33.47-47.79h23.41V466H1117.9v-79l-26.54,37.09h-13.2l-27-37.09Z"/><polygon class="cls-1" points="0 794.79 1922.2 1256.32 1921.1 2587.41 1.1 2587.41 0 794.79"/><polygon class="cls-10" points="1922.1 713.75 801.95 987.29 958.99 1024.55 1922.1 794.58 1922.1 713.75"/><polygon class="cls-11" points="0 794.58 1922.2 1256.52 1921.88 1153.63 0.1 688.94 0 794.58"/><polyline class="cls-12" points="886.95 809.4 962.41 852.84 1037.91 809.4"/><line class="cls-13" x1="0.02" y1="810.41" x2="1922.21" y2="1272.41"/></svg>