<svg id="Camada_1" data-name="Camada 1" xmlns="http://www.w3.org/2000/svg" viewBox="0 0 143.5 61.54"><defs><style>.cls-1{fill:#fff;}</style></defs><title>AD&amp;amp;M_footer_logo</title><path class="cls-1" d="M96.18,32.87v2.88a9.15,9.15,0,0,0-5.37-2.17,5.39,5.39,0,0,0-3.62,1.15,3.88,3.88,0,0,0-1.34,3.11,4.57,4.57,0,0,0,.46,2,9.51,9.51,0,0,0,.92,1.5q.27.34,1.35,1.42l9.18,8.95a11.44,11.44,0,0,0,2.31-6.65h2.76a16.64,16.64,0,0,1-3.14,8.54l4.92,4.8H100.9L98,55.59a12,12,0,0,1-8.53,3.3,10.76,10.76,0,0,1-6.92-2.22,7.59,7.59,0,0,1-2.77-6.26,7.55,7.55,0,0,1,1.58-4.84,9.49,9.49,0,0,1,3.49-2.85A7.29,7.29,0,0,1,83,37.84,6.2,6.2,0,0,1,85.11,33a7.67,7.67,0,0,1,5.31-1.92A9.15,9.15,0,0,1,96.18,32.87ZM89.61,56.4a9.08,9.08,0,0,0,6.49-2.61l-9.46-9.23a5.46,5.46,0,0,0-2.86,2.1,6.14,6.14,0,0,0-1.18,3.75,5.44,5.44,0,0,0,1.94,4.36A7.6,7.6,0,0,0,89.61,56.4Z"/><path class="cls-1" d="M13.6,42.48H5.3L21.8,3.77h7.59l16.49,38.7H37.47l-3.8-8.91H17.4ZM25.54,13.67,19.87,27H31.14Z"/><path class="cls-1" d="M63,42.48H48.55V4H63Q72.3,4,78.19,9.38a17.94,17.94,0,0,1,5.88,13.85,18,18,0,0,1-5.88,13.91Q72.36,42.48,63,42.48Zm-6.49-31.4v24.3H62.3q6.43,0,10-3.21t3.6-8.94q0-5.71-3.6-8.93t-10-3.22Z"/><path class="cls-1" d="M106.77,42.42H98.85V3.94h7.86l11.16,15.94L129,3.94h7.81V42.42H129V16.09l-8.85,12.37h-4.4l-9-12.37Z"/></svg>