<svg id="Camada_1" data-name="Camada 1" xmlns="http://www.w3.org/2000/svg" viewBox="0 0 78.33 36.33"><defs><style>.cls-1{fill:#00444f;}.cls-2{fill:#009ba4;}</style></defs><title>ICONE</title><path class="cls-1" d="M51.94,19.39V21A5,5,0,0,0,49,19.78a2.93,2.93,0,0,0-2,.63,2.11,2.11,0,0,0-.73,1.69,2.49,2.49,0,0,0,.25,1.11,5.17,5.17,0,0,0,.5.82q.15.19.73.77l5,4.87A6.23,6.23,0,0,0,54.05,26h1.5a9.06,9.06,0,0,1-1.71,4.65l2.68,2.61h-2l-1.59-1.55a6.55,6.55,0,0,1-4.64,1.8,5.85,5.85,0,0,1-3.76-1.21A4.13,4.13,0,0,1,43,28.94a4.11,4.11,0,0,1,.86-2.64,5.17,5.17,0,0,1,1.9-1.55,4,4,0,0,1-1-2.65,3.38,3.38,0,0,1,1.15-2.64,4.18,4.18,0,0,1,2.89-1A5,5,0,0,1,51.94,19.39ZM48.37,32.2a4.94,4.94,0,0,0,3.53-1.42l-5.15-5A3,3,0,0,0,45.2,26.9a3.34,3.34,0,0,0-.64,2,3,3,0,0,0,1.06,2.37A4.13,4.13,0,0,0,48.37,32.2Z"/><path class="cls-2" d="M7,24.62H2.48l9-21.07h4.13l9,21.07H20l-2.07-4.85H9.06Zm6.5-15.68-3.08,7.27h6.13Z"/><path class="cls-2" d="M33.86,24.62H26V3.68h7.84a11.8,11.8,0,0,1,8.29,2.93,9.76,9.76,0,0,1,3.2,7.54,9.81,9.81,0,0,1-3.2,7.57A11.81,11.81,0,0,1,33.86,24.62ZM30.33,7.53V20.76H33.5A7.93,7.93,0,0,0,39,19a6.19,6.19,0,0,0,2-4.87,6.19,6.19,0,0,0-2-4.86A7.93,7.93,0,0,0,33.5,7.53Z"/><path class="cls-2" d="M57.7,24.59H53.39V3.64h4.28l6.08,8.68,6.08-8.68h4.25V24.59H69.82V10.26L65,17h-2.4L57.7,10.26Z"/></svg>