<svg id="Camada_1" data-name="Camada 1" xmlns="http://www.w3.org/2000/svg" viewBox="0 0 403.5 174.5"><defs><style>.cls-1{fill:#00444f;}.cls-2{fill:#fff;}</style></defs><title>ICONE</title><path class="cls-1" d="M275.62,93.84v8.64c-6.37-4.85-12-6.51-16.11-6.51-4.53,0-8.15,1.15-10.85,3.45a11.62,11.62,0,0,0-4,9.33,13.72,13.72,0,0,0,1.37,6.1,28.5,28.5,0,0,0,2.77,4.5q.81,1,4,4.26l27.52,26.83c4.16-6.29,6.46-10.8,6.93-20h8.28c-.39,9.62-4.69,18.84-9.43,25.61l14.74,14.4H289.79L281.05,162a36.11,36.11,0,0,1-25.58,9.89c-8.23,0-15.13-2.2-20.74-6.66s-8.3-10.72-8.3-18.78a22.63,22.63,0,0,1,4.73-14.52,28.45,28.45,0,0,1,10.48-8.54,21.86,21.86,0,0,1-5.53-14.62,18.6,18.6,0,0,1,6.34-14.52,23,23,0,0,1,15.91-5.75C266.09,88.48,273.09,91.31,275.62,93.84ZM255.93,164.4a27.23,27.23,0,0,0,19.46-7.83L247,128.9a16.36,16.36,0,0,0-8.57,6.29,18.4,18.4,0,0,0-3.53,11.24,16.31,16.31,0,0,0,5.83,13.07C244.64,162.76,249.71,164.4,255.93,164.4Z"/><path class="cls-2" d="M28,122.66H3.14L52.6,6.61H75.34l49.46,116H99.58L88.2,95.95H39.4ZM63.81,36.29l-17,40.05H80.61Z"/><path class="cls-2" d="M176,122.66H132.81V7.27H176q28,0,45.66,16.16T239.31,65q0,25.56-17.63,41.72Q204.2,122.65,176,122.66ZM156.55,28.52v72.86H174q19.28,0,30.09-9.62T214.92,65q0-17.11-10.8-26.78T174,28.52Z"/><path class="cls-2" d="M307.37,122.49H283.62V7.1H307.2l33.47,47.79L374.13,7.1h23.41V122.49H374.13v-79L347.59,80.62H334.4l-27-37.09Z"/></svg>