<svg id="Camada_1" data-name="Camada 1" xmlns="http://www.w3.org/2000/svg" viewBox="0 0 130.67 113.75"><defs><style>.cls-1{fill:#00444f;}.cls-2{fill:#cee8fa;}.cls-3{fill:#fff;}.cls-4{fill:none;}</style></defs><title>AD&amp;amp;M_site_MEDIDAS_2</title><path class="cls-1" d="M63.56,112.59A53.72,53.72,0,0,1,17.82,30.73a3.36,3.36,0,1,1,5.71,3.52,47,47,0,1,0,12-13.06,3.36,3.36,0,0,1-4-5.38,53.71,53.71,0,1,1,32.09,96.78Zm0,0"/><path class="cls-2" d="M63.56,92.45A33.57,33.57,0,1,1,97.12,58.89,33.6,33.6,0,0,1,63.56,92.45Zm0,0"/><path class="cls-1" d="M63.56,95.81a36.92,36.92,0,1,1,36.92-36.92A37,37,0,0,1,63.56,95.81Zm0-67.13A30.21,30.21,0,1,0,93.77,58.89,30.24,30.24,0,0,0,63.56,28.68Zm0,0"/><path class="cls-3" d="M63.56,75.67A16.78,16.78,0,1,1,80.34,58.89,16.8,16.8,0,0,1,63.56,75.67Zm0,0"/><path class="cls-1" d="M63.56,79A20.14,20.14,0,1,1,83.7,58.89,20.16,20.16,0,0,1,63.56,79Zm0-33.57A13.43,13.43,0,1,0,77,58.89,13.44,13.44,0,0,0,63.56,45.46Zm0,0"/><rect class="cls-4" x="9.85" y="1.59" width="110.74" height="111.26"/><path class="cls-1" d="M64.47,60.92a3.36,3.36,0,0,1-2.37-5.73l42.25-42.25a3.36,3.36,0,1,1,4.75,4.75L66.84,59.93a3.35,3.35,0,0,1-2.37,1Zm0,0"/><path class="cls-1" d="M105.73,19.65a3.36,3.36,0,0,1-3.3-3.94l2-11.26A3.36,3.36,0,0,1,111,5.62l-1.16,6.53L116.41,11a3.36,3.36,0,0,1,1.18,6.61l-11.26,2a3.45,3.45,0,0,1-.59.05Zm0,0"/><path class="cls-1" d="M61.51,65.48a5,5,0,0,1-4.88-5.83l1.6-9a3.36,3.36,0,0,1,6.61,1.18l-1.16,6.53,6.53-1.16a3.36,3.36,0,1,1,1.18,6.61l-9,1.6a4.9,4.9,0,0,1-.87.08Zm0,0"/></svg>