<svg id="Camada_1" data-name="Camada 1" xmlns="http://www.w3.org/2000/svg" viewBox="0 0 82.75 82.5"><defs><style>.cls-1{fill:#b0e1e0;}.cls-2{fill:#00444f;}</style></defs><title>principio_5</title><rect class="cls-1" x="13.19" y="13.88" width="56.86" height="56.86" transform="translate(-17.73 41.83) rotate(-45)"/><path class="cls-2" d="M32.56,22.66c.74,0,1.58-.06,2.18-.06,8.32,0,14.44,1.43,14.44,10.92,0,8.18-4.66,11.4-13.15,11.4A52.15,52.15,0,0,1,24.85,43.7l.75-5.49a63.48,63.48,0,0,0,8.8.78c5.48,0,7.41-.78,7.41-6.08,0-4.28-4.26-4.8-8.78-4.8-2.57,0-4.8.06-7.35.18L27,9.79H48.35v6H33Z"/></svg>