<svg id="Camada_1" data-name="Camada 1" xmlns="http://www.w3.org/2000/svg" viewBox="0 0 82.75 82.5"><defs><style>.cls-1{fill:#b0e1e0;}.cls-2{fill:#00444f;}</style></defs><title>principio_1</title><rect class="cls-1" x="12.94" y="14.21" width="56.86" height="56.86" transform="translate(-18.04 41.75) rotate(-45)"/><path class="cls-2" d="M52.44,17.08a8.16,8.16,0,0,1-4.83,7.83C51.13,26.28,53,28.5,53,32.5c0,8.52-5.11,11.09-13.5,11.09a54.9,54.9,0,0,1-10.8-1.18l.77-5.49a73,73,0,0,0,8.74.77c5.08,0,7.44-.77,7.44-4.92,0-2.78-1.28-4.18-3.74-4.49a54.37,54.37,0,0,0-7.21-.38H34V22.7A66,66,0,0,0,41.89,22c2.43-.35,3.35-1.8,3.35-4.2,0-3.57-2.6-3.94-6.15-3.94a74.49,74.49,0,0,0-9.34.77L29,9.25A55,55,0,0,1,39.66,8.09C46.35,8.09,52.44,9.5,52.44,17.08Z"/></svg>