<svg id="Camada_1" data-name="Camada 1" xmlns="http://www.w3.org/2000/svg" viewBox="0 0 82.75 82.5"><defs><style>.cls-1{fill:#b0e1e0;}.cls-2{fill:#00444f;}</style></defs><title>principio_1</title><rect class="cls-1" x="12.94" y="12.82" width="56.86" height="56.86" transform="translate(-17.05 41.34) rotate(-45)"/><path class="cls-2" d="M26.52,11A61.14,61.14,0,0,1,38,9.86c7,0,12.43,1.83,12.43,8.87,0,6.41-3.38,10.37-10.15,13C35.3,33.7,34.44,35.39,34,38.91H50.36V45H26c2-11,2.81-15,10.92-18.44,4.34-1.85,6.37-3.37,6.37-6.58,0-3.48-1.94-4.21-8.27-4.21a54.23,54.23,0,0,0-7.78.74Z"/></svg>