<svg id="Camada_1" data-name="Camada 1" xmlns="http://www.w3.org/2000/svg" viewBox="0 0 130.67 112"><defs><style>.cls-1{fill:#00444f;}.cls-2{fill:#cee8fa;}.cls-3{fill:#fff;}</style></defs><title>AD&amp;amp;M_site_MEDIDAS_2</title><path class="cls-1" d="M109.63,78.78A3.29,3.29,0,0,1,107.45,73c8.54-7.52,12.38-14.48,12.38-17,0-7.17-23.33-34.32-54.83-34.32a3.29,3.29,0,1,1,0-6.58c19.83,0,35.52,9.87,43.11,15.76,10.94,8.49,18.3,18.59,18.3,25.14,0,5.52-5.73,14.14-14.61,22A3.28,3.28,0,0,1,109.63,78.78Z"/><path class="cls-1" d="M65,96.9c-19.78,0-35.51-10-43.12-15.89C11.11,72.61,3.59,62.33,3.59,56c0-5.26,5-13.18,13.11-20.68a3.29,3.29,0,0,1,4.47,4.83c-8,7.43-11,13.67-11,15.85,0,3.16,5.48,11.8,15.76,19.81,6.95,5.42,21.26,14.5,39.07,14.5a3.29,3.29,0,1,1,0,6.58Z"/><path class="cls-2" d="M65,18.43A37.57,37.57,0,1,0,102.57,56,37.57,37.57,0,0,0,65,18.43ZM65,74.9A18.9,18.9,0,1,1,83.9,56,18.9,18.9,0,0,1,65,74.9Z"/><path class="cls-1" d="M65,96.86A40.86,40.86,0,1,1,105.86,56,40.9,40.9,0,0,1,65,96.86Zm0-75.13A34.28,34.28,0,1,0,99.28,56,34.32,34.32,0,0,0,65,21.72Zm0,56.47A22.19,22.19,0,1,1,87.19,56,22.22,22.22,0,0,1,65,78.19Zm0-37.8A15.61,15.61,0,1,0,80.61,56,15.63,15.63,0,0,0,65,40.39Z"/><circle class="cls-3" cx="78.16" cy="45.11" r="10.2"/><path class="cls-1" d="M78.16,58.6A13.49,13.49,0,1,1,91.65,45.11,13.5,13.5,0,0,1,78.16,58.6Zm0-20.4a6.91,6.91,0,1,0,6.91,6.91A6.92,6.92,0,0,0,78.16,38.2Z"/></svg>