<svg id="Camada_1" data-name="Camada 1" xmlns="http://www.w3.org/2000/svg" viewBox="0 0 39.5 38"><defs><style>.cls-1{fill:#fff;}.cls-2{fill:#00444f;}</style></defs><title>AD&amp;amp;M_facebook</title><path class="cls-1" d="M35.59,33.12a2,2,0,0,1-2,2h-28a2,2,0,0,1-2-2v-28a2,2,0,0,1,2-2h28a2,2,0,0,1,2,2Z"/><path class="cls-2" d="M29.58,13a8.28,8.28,0,0,1-2.36.64A4,4,0,0,0,29,11.42a8.32,8.32,0,0,1-2.6,1,4.13,4.13,0,0,0-3-1.28,4.07,4.07,0,0,0-4.1,4,4.14,4.14,0,0,0,.1.92A11.72,11.72,0,0,1,11,11.86a4,4,0,0,0-.56,2,4,4,0,0,0,1.82,3.36,4.13,4.13,0,0,1-1.86-.51s0,0,0,.05a4.06,4.06,0,0,0,3.29,4,4.25,4.25,0,0,1-1.08.14,4.07,4.07,0,0,1-.77-.07,4.1,4.1,0,0,0,3.83,2.81A8.39,8.39,0,0,1,9.59,25.3a11.74,11.74,0,0,0,6.29,1.81A11.5,11.5,0,0,0,27.55,15.63c0-.17,0-.35,0-.52A8.31,8.31,0,0,0,29.58,13Z"/></svg>